<?xml version="1.0" encoding="UTF-8" standalone="no"?><!DOCTYPE svg PUBLIC "-//W3C//DTD SVG 1.1//EN" "http://www.w3.org/Graphics/SVG/1.1/DTD/svg11.dtd"><svg width="100%" height="100%" viewBox="0 0 127 127" version="1.1" xmlns="http://www.w3.org/2000/svg" xmlns:xlink="http://www.w3.org/1999/xlink" xml:space="preserve" xmlns:serif="http://www.serif.com/" style="fill-rule:evenodd;clip-rule:evenodd;stroke-linecap:round;stroke-linejoin:round;stroke-miterlimit:1.5;"><g><path d="M52,11c-6.82,-6.719 -19.831,-3.142 -22,4c0,0 -21.322,0.249 -16,24c-7.458,7.517 -9.898,17.405 0,28c-5.071,4.182 -8.19,28.148 13,29c0.048,-0.477 9.171,18.193 25,8c0,-23.794 0,-79.451 0,-93" style="fill:none;stroke:#404040;stroke-width:4px;"/><path d="M52,11c6.82,-6.719 19.831,-3.142 22,4c0,0 21.322,0.249 16,24c7.458,7.517 9.898,15.766 0,26.362" style="fill:none;stroke:#404040;stroke-width:4px;"/><path d="M68,102.083l0.737,1.917c-1.418,0.953 -5.911,6.798 -16.737,0" style="fill:none;stroke:#404040;stroke-width:4px;"/><path d="M99.948,65.538c-3.606,-0.717 -7.318,-0.717 -10.925,0l-1.595,4.733c-3.386,1.051 -6.494,2.845 -9.098,5.252l-4.896,-0.985c-2.424,2.765 -4.28,5.98 -5.462,9.462l3.301,3.747c-0.783,3.458 -0.783,7.048 0,10.506l-3.301,3.747c1.182,3.482 3.038,6.697 5.462,9.462l4.896,-0.985c2.604,2.407 5.712,4.201 9.098,5.252l1.595,4.733c3.607,0.717 7.319,0.717 10.925,0l1.596,-4.733c3.386,-1.051 6.494,-2.845 9.097,-5.252l4.896,0.985c2.425,-2.765 4.281,-5.98 5.463,-9.462l-3.301,-3.747c0.783,-3.458 0.783,-7.048 0,-10.506l3.301,-3.747c-1.182,-3.482 -3.038,-6.697 -5.463,-9.462l-4.896,0.985c-2.603,-2.407 -5.711,-4.201 -9.097,-5.252l-1.596,-4.733Zm-5.462,13.53c7.689,0 13.932,6.243 13.932,13.932c0,7.689 -6.243,13.932 -13.932,13.932c-7.689,0 -13.932,-6.243 -13.932,-13.932c0,-7.689 6.243,-13.932 13.932,-13.932Z" style="fill:none;stroke:#404040;stroke-width:4px;"/><path d="M25.004,15.843c3.927,-1.191 12.018,2.317 12.996,4.157" style="fill:none;stroke:#404040;stroke-width:2px;"/><path d="M14.847,38.378c0,0 0.574,6.718 13.232,7.622" style="fill:none;stroke:#404040;stroke-width:2px;"/><path d="M52,29c0,0 -1.464,7.09 -18,5" style="fill:none;stroke:#404040;stroke-width:2px;"/><path d="M52,48l-4,0" style="fill:none;stroke:#404040;stroke-width:2px;"/><path d="M13,69c0,0 6.719,-7.332 24,-7" style="fill:none;stroke:#404040;stroke-width:2px;"/><path d="M25,95c0,0 9.192,0.385 12,-3" style="fill:none;stroke:#404040;stroke-width:2px;"/><path d="M52,72c0,0 -1.041,7 -19,7" style="fill:none;stroke:#404040;stroke-width:2px;"/><path d="M52,52c0,0 4.76,5.239 26,5.239" style="fill:none;stroke:#404040;stroke-width:2px;"/><path d="M63.5,56.191l0,-8.191" style="fill:none;stroke:#404040;stroke-width:2px;"/><path d="M90,39l-12,0" style="fill:none;stroke:#404040;stroke-width:2px;"/><path d="M79.181,15.899c0,0 -10.351,-3.277 -14.181,13.101" style="fill:none;stroke:#404040;stroke-width:2px;"/><path d="M52,68l9,0" style="fill:none;stroke:#404040;stroke-width:2px;"/><path d="M52,85c0,0 -0.217,-3.936 9,-4" style="fill:none;stroke:#404040;stroke-width:2px;"/><path d="M39.5,19c1.932,0 3.5,1.568 3.5,3.5c0,1.932 -1.568,3.5 -3.5,3.5c-1.932,0 -3.5,-1.568 -3.5,-3.5c0,-1.932 1.568,-3.5 3.5,-3.5Zm0,1.75c0.966,0 1.75,0.784 1.75,1.75c0,0.966 -0.784,1.75 -1.75,1.75c-0.966,0 -1.75,-0.784 -1.75,-1.75c0,-0.966 0.784,-1.75 1.75,-1.75Z" style="fill:#404040;"/><path d="M30.692,30.334c1.932,0 3.5,1.569 3.5,3.5c0,1.932 -1.568,3.5 -3.5,3.5c-1.932,0 -3.5,-1.568 -3.5,-3.5c0,-1.931 1.568,-3.5 3.5,-3.5Zm0,1.75c0.966,0 1.75,0.784 1.75,1.75c0,0.966 -0.784,1.75 -1.75,1.75c-0.966,0 -1.75,-0.784 -1.75,-1.75c0,-0.966 0.784,-1.75 1.75,-1.75Z" style="fill:#404040;"/><path d="M31.502,43c1.932,0 3.5,1.568 3.5,3.5c0,1.932 -1.568,3.5 -3.5,3.5c-1.931,0 -3.5,-1.568 -3.5,-3.5c0,-1.932 1.569,-3.5 3.5,-3.5Zm0,1.75c0.966,0 1.75,0.784 1.75,1.75c0,0.966 -0.784,1.75 -1.75,1.75c-0.966,0 -1.75,-0.784 -1.75,-1.75c0,-0.966 0.784,-1.75 1.75,-1.75Z" style="fill:#404040;"/><path d="M44.735,44.629c1.932,0 3.5,1.568 3.5,3.5c0,1.931 -1.568,3.5 -3.5,3.5c-1.932,0 -3.5,-1.569 -3.5,-3.5c0,-1.932 1.568,-3.5 3.5,-3.5Zm0,1.75c0.966,0 1.75,0.784 1.75,1.75c0,0.966 -0.784,1.75 -1.75,1.75c-0.966,0 -1.75,-0.784 -1.75,-1.75c0,-0.966 0.784,-1.75 1.75,-1.75Z" style="fill:#404040;"/><path d="M40.661,58.625c1.932,0 3.5,1.568 3.5,3.5c0,1.931 -1.568,3.5 -3.5,3.5c-1.932,0 -3.5,-1.569 -3.5,-3.5c0,-1.932 1.568,-3.5 3.5,-3.5Zm0,1.75c0.966,0 1.75,0.784 1.75,1.75c0,0.966 -0.784,1.75 -1.75,1.75c-0.966,0 -1.75,-0.784 -1.75,-1.75c0,-0.966 0.784,-1.75 1.75,-1.75Z" style="fill:#404040;"/><path d="M29.661,75.5c1.932,0 3.5,1.568 3.5,3.5c0,1.932 -1.568,3.5 -3.5,3.5c-1.932,0 -3.5,-1.568 -3.5,-3.5c0,-1.932 1.568,-3.5 3.5,-3.5Zm0,1.75c0.966,0 1.75,0.784 1.75,1.75c0,0.966 -0.784,1.75 -1.75,1.75c-0.966,0 -1.75,-0.784 -1.75,-1.75c0,-0.966 0.784,-1.75 1.75,-1.75Z" style="fill:#404040;"/><path d="M39,86.101c1.932,0 3.5,1.569 3.5,3.5c0,1.932 -1.568,3.5 -3.5,3.5c-1.932,0 -3.5,-1.568 -3.5,-3.5c0,-1.931 1.568,-3.5 3.5,-3.5Zm0,1.75c0.966,0 1.75,0.784 1.75,1.75c0,0.966 -0.784,1.75 -1.75,1.75c-0.966,0 -1.75,-0.784 -1.75,-1.75c0,-0.966 0.784,-1.75 1.75,-1.75Z" style="fill:#404040;"/><path d="M64.036,77.548c1.932,0 3.5,1.568 3.5,3.5c0,1.932 -1.568,3.5 -3.5,3.5c-1.932,0 -3.5,-1.568 -3.5,-3.5c0,-1.932 1.568,-3.5 3.5,-3.5Zm0,1.75c0.966,0 1.75,0.784 1.75,1.75c0,0.966 -0.784,1.75 -1.75,1.75c-0.966,0 -1.75,-0.784 -1.75,-1.75c0,-0.966 0.784,-1.75 1.75,-1.75Z" style="fill:#404040;"/><path d="M64,64.429c1.932,0 3.5,1.569 3.5,3.5c0,1.932 -1.568,3.5 -3.5,3.5c-1.931,0 -3.5,-1.568 -3.5,-3.5c0,-1.931 1.569,-3.5 3.5,-3.5Zm0,1.75c0.966,0 1.75,0.784 1.75,1.75c0,0.966 -0.784,1.75 -1.75,1.75c-0.966,0 -1.75,-0.784 -1.75,-1.75c0,-0.966 0.784,-1.75 1.75,-1.75Z" style="fill:#404040;"/><path d="M81.251,53.679c1.931,0 3.5,1.568 3.5,3.5c0,1.931 -1.569,3.5 -3.5,3.5c-1.932,0 -3.5,-1.569 -3.5,-3.5c0,-1.932 1.568,-3.5 3.5,-3.5Zm0,1.75c0.965,0 1.75,0.784 1.75,1.75c0,0.966 -0.785,1.75 -1.75,1.75c-0.966,0 -1.75,-0.784 -1.75,-1.75c0,-0.966 0.784,-1.75 1.75,-1.75Z" style="fill:#404040;"/><path d="M63.5,41.5c1.932,0 3.5,1.568 3.5,3.5c0,1.932 -1.568,3.5 -3.5,3.5c-1.932,0 -3.5,-1.568 -3.5,-3.5c0,-1.932 1.568,-3.5 3.5,-3.5Zm0,1.75c0.966,0 1.75,0.784 1.75,1.75c0,0.966 -0.784,1.75 -1.75,1.75c-0.966,0 -1.75,-0.784 -1.75,-1.75c0,-0.966 0.784,-1.75 1.75,-1.75Z" style="fill:#404040;"/><path d="M74.835,35.551c1.932,0 3.5,1.568 3.5,3.5c0,1.931 -1.568,3.5 -3.5,3.5c-1.932,0 -3.5,-1.569 -3.5,-3.5c0,-1.932 1.568,-3.5 3.5,-3.5Zm0,1.75c0.966,0 1.75,0.784 1.75,1.75c0,0.966 -0.784,1.75 -1.75,1.75c-0.966,0 -1.75,-0.784 -1.75,-1.75c0,-0.966 0.784,-1.75 1.75,-1.75Z" style="fill:#404040;"/><path d="M64.5,28.5c1.932,0 3.5,1.568 3.5,3.5c0,1.932 -1.568,3.5 -3.5,3.5c-1.932,0 -3.5,-1.568 -3.5,-3.5c0,-1.932 1.568,-3.5 3.5,-3.5Zm0,1.75c0.966,0 1.75,0.784 1.75,1.75c0,0.966 -0.784,1.75 -1.75,1.75c-0.966,0 -1.75,-0.784 -1.75,-1.75c0,-0.966 0.784,-1.75 1.75,-1.75Z" style="fill:#404040;"/></g></svg>
