<?xml version="1.0" encoding="UTF-8" standalone="no"?><!DOCTYPE svg PUBLIC "-//W3C//DTD SVG 1.1//EN" "http://www.w3.org/Graphics/SVG/1.1/DTD/svg11.dtd"><svg width="100%" height="100%" viewBox="0 0 127 127" version="1.1" xmlns="http://www.w3.org/2000/svg" xmlns:xlink="http://www.w3.org/1999/xlink" xml:space="preserve" xmlns:serif="http://www.serif.com/" style="fill-rule:evenodd;clip-rule:evenodd;stroke-linejoin:round;stroke-miterlimit:1.41421;"><g id="Слой1"><path d="M62,34.067l0,-15.943c-2.048,-0.8 -3.5,-2.794 -3.5,-5.124c0,-3.036 2.464,-5.5 5.5,-5.5c3.036,0 5.5,2.464 5.5,5.5c0,2.33 -1.452,4.324 -3.5,5.124l0,15.943c9.364,0.628 17.537,5.634 22.487,12.986l13.809,-7.973c-0.33,-2.174 0.67,-4.428 2.688,-5.593c2.629,-1.518 5.996,-0.616 7.513,2.013c1.518,2.629 0.616,5.995 -2.013,7.513c-2.018,1.165 -4.47,0.904 -6.188,-0.469l-13.805,7.971c1.927,3.919 3.009,8.326 3.009,12.985c0,4.659 -1.082,9.066 -3.009,12.985l13.805,7.971c1.718,-1.373 4.17,-1.634 6.188,-0.469c2.629,1.518 3.531,4.884 2.013,7.513c-1.517,2.629 -4.884,3.531 -7.513,2.013c-2.018,-1.165 -3.018,-3.419 -2.688,-5.593l-13.809,-7.973c-4.95,7.352 -13.123,12.358 -22.487,12.986l0,15.943c2.048,0.8 3.5,2.794 3.5,5.124c0,3.036 -2.464,5.5 -5.5,5.5c-3.036,0 -5.5,-2.464 -5.5,-5.5c0,-2.33 1.452,-4.324 3.5,-5.124l0,-15.943c-9.364,-0.628 -17.537,-5.634 -22.487,-12.986l-13.809,7.973c0.33,2.174 -0.67,4.428 -2.688,5.593c-2.629,1.518 -5.996,0.616 -7.513,-2.013c-1.518,-2.629 -0.616,-5.995 2.013,-7.513c2.018,-1.165 4.47,-0.904 6.188,0.469l13.805,-7.971c-1.927,-3.919 -3.009,-8.326 -3.009,-12.985c0,-4.659 1.082,-9.066 3.009,-12.985l-13.805,-7.971c-1.718,1.373 -4.17,1.634 -6.188,0.469c-2.629,-1.518 -3.531,-4.884 -2.013,-7.513c1.517,-2.629 4.884,-3.531 7.513,-2.013c2.018,1.165 3.018,3.419 2.688,5.593l13.809,7.973c4.95,-7.352 13.123,-12.358 22.487,-12.986Zm2,3.698c14.203,0 25.735,11.532 25.735,25.735c0,14.203 -11.532,25.735 -25.735,25.735c-14.203,0 -25.735,-11.532 -25.735,-25.735c0,-14.203 11.532,-25.735 25.735,-25.735Zm17,16.52l-16.057,9.426l-0.135,18.62l16.057,-9.427l0.135,-18.619Zm-18,28.046l-0.135,-18.62l-16.057,-9.426l0.135,18.619l16.057,9.427Zm17.192,-30.023l-16.192,-9.193l-16.192,9.193l16.192,9.192l16.192,-9.192Z" style="fill:#404040;"/></g></svg>
