<?xml version="1.0" encoding="UTF-8" standalone="no"?><!DOCTYPE svg PUBLIC "-//W3C//DTD SVG 1.1//EN" "http://www.w3.org/Graphics/SVG/1.1/DTD/svg11.dtd"><svg width="100%" height="100%" viewBox="0 0 127 128" version="1.1" xmlns="http://www.w3.org/2000/svg" xmlns:xlink="http://www.w3.org/1999/xlink" xml:space="preserve" xmlns:serif="http://www.serif.com/" style="fill-rule:evenodd;clip-rule:evenodd;stroke-linejoin:round;stroke-miterlimit:1.41421;"><g id="Слой1"><path d="M49.429,103.139c-36.466,-13.921 -28.208,-29.612 -26.123,-35.351c16.145,22.499 24.435,-5.945 13.694,-8.828c-19.286,-2.34 -21.625,-11.816 -19,-17.96c2.625,-6.144 6.548,-22.289 -3,-27c14.188,-5.254 19,6 19,6c11.873,28.994 34.952,9.698 19,-4c20.888,-0.808 18.306,11.174 18.306,11.174c-3.867,22.144 21.546,18.612 9.694,-0.174c23.801,5.444 26.07,33.188 26.072,33.212c0,0 0,0 0,0l0,0l0,0c3.746,5.68 5.928,12.481 5.928,19.788c0,19.869 -16.131,36 -36,36c-11.062,0 -20.965,-5 -27.571,-12.861l0,0l0,0l0,0Zm27.571,-50.139c14.902,0 27,12.098 27,27c0,14.902 -12.098,27 -27,27c-14.902,0 -27,-12.098 -27,-27c0,-14.902 12.098,-27 27,-27Zm6,39c0,2.76 -2.24,5 -5,5c-2.76,0 -5,-2.24 -5,-5c0,-2.76 2.24,-5 5,-5l21,-14l-16,19Zm-25,-21c0,0 21.732,-12.108 29,4l9,-6c-8.875,-12.091 -29.858,-15.336 -38,2Z" style="fill:#323332;"/></g></svg>
