<?xml version="1.0" encoding="UTF-8" standalone="no"?><!DOCTYPE svg PUBLIC "-//W3C//DTD SVG 1.1//EN" "http://www.w3.org/Graphics/SVG/1.1/DTD/svg11.dtd"><svg width="100%" height="100%" viewBox="0 0 778 80" version="1.1" xmlns="http://www.w3.org/2000/svg" xmlns:xlink="http://www.w3.org/1999/xlink" xml:space="preserve" xmlns:serif="http://www.serif.com/" style="fill-rule:evenodd;clip-rule:evenodd;stroke-linejoin:round;stroke-miterlimit:1.41421;"><path d="M713.106,75.81l8.235,0l24.317,-57.548l24.076,57.548l8.235,0l-32.311,-75.81l-32.552,75.81Zm-132.728,0l8.235,0l24.316,-57.548l24.076,57.548l8.235,0l-32.311,-75.81l-32.551,75.81Zm-241.134,-71.983c-2.562,0.969 -4.79,2.276 -6.684,3.923c-1.884,1.647 -3.38,3.601 -4.479,5.862c-1.098,2.261 -1.647,4.699 -1.647,7.314c0,2.649 0.42,4.952 1.26,6.906c0.839,1.954 1.953,3.671 3.342,5.156c1.389,1.486 3.004,2.745 4.845,3.778c1.841,1.034 3.762,1.938 5.763,2.714l8.527,3.294c1.647,0.646 3.229,1.356 4.747,2.131c1.518,0.775 2.825,1.69 3.923,2.734c1.098,1.055 1.975,2.256 2.644,3.612c0.656,1.356 0.99,2.955 0.99,4.795c0,2.003 -0.367,3.875 -1.087,5.619c-0.733,1.744 -1.755,3.262 -3.079,4.554c-1.324,1.291 -2.928,2.32 -4.823,3.079c-1.883,0.758 -3.994,1.135 -6.319,1.135c-3.875,0 -7.422,-0.839 -10.635,-2.519c-3.214,-1.679 -5.884,-3.907 -8.014,-6.685l-5.426,4.554c3.036,3.778 6.605,6.556 10.706,8.331c4.1,1.777 8.493,2.664 13.176,2.664c3.197,0 6.2,-0.526 9.009,-1.571c2.81,-1.049 5.253,-2.518 7.342,-4.414c2.077,-1.883 3.708,-4.095 4.887,-6.631c1.178,-2.534 1.77,-5.274 1.77,-8.213c0,-2.906 -0.457,-5.415 -1.383,-7.535c-0.914,-2.11 -2.153,-3.946 -3.702,-5.495c-1.55,-1.55 -3.316,-2.874 -5.307,-3.973c-1.981,-1.097 -4.043,-2.066 -6.174,-2.906l-8.236,-3.294c-1.517,-0.582 -2.953,-1.232 -4.31,-1.964c-1.356,-0.722 -2.531,-1.556 -3.51,-2.492c-0.99,-0.937 -1.781,-2.008 -2.378,-3.225c-0.598,-1.205 -0.894,-2.62 -0.894,-4.235c0,-1.712 0.344,-3.294 1.045,-4.748c0.688,-1.452 1.652,-2.728 2.879,-3.826c1.227,-1.098 2.648,-1.938 4.262,-2.519c1.616,-0.582 3.392,-0.873 5.329,-0.873c3.036,0 5.689,0.496 7.971,1.476c2.272,0.99 4.382,2.4 6.319,4.24l4.553,-5.231c-2.519,-2.195 -5.214,-3.907 -8.089,-5.135c-2.874,-1.227 -6.458,-1.84 -10.754,-1.84c-3.003,0 -5.786,0.484 -8.359,1.453Zm-68.63,0c-2.562,0.969 -4.789,2.276 -6.684,3.923c-1.885,1.647 -3.38,3.601 -4.478,5.862c-1.098,2.261 -1.647,4.699 -1.647,7.314c0,2.649 0.419,4.952 1.259,6.906c0.84,1.954 1.954,3.671 3.342,5.156c1.389,1.486 3.004,2.745 4.844,3.778c1.842,1.034 3.763,1.938 5.765,2.714l8.525,3.294c1.647,0.646 3.23,1.356 4.748,2.131c1.517,0.775 2.825,1.69 3.924,2.734c1.098,1.055 1.974,2.256 2.642,3.612c0.656,1.356 0.99,2.955 0.99,4.795c0,2.003 -0.365,3.875 -1.087,5.619c-0.732,1.744 -1.754,3.262 -3.078,4.554c-1.325,1.291 -2.929,2.32 -4.823,3.079c-1.884,0.758 -3.993,1.135 -6.319,1.135c-3.875,0 -7.422,-0.839 -10.635,-2.519c-3.213,-1.679 -5.883,-3.907 -8.015,-6.685l-5.425,4.554c3.036,3.778 6.604,6.556 10.706,8.331c4.101,1.777 8.493,2.664 13.176,2.664c3.196,0 6.2,-0.526 9.01,-1.571c2.809,-1.049 5.253,-2.518 7.342,-4.414c2.076,-1.883 3.708,-4.095 4.886,-6.631c1.179,-2.534 1.77,-5.274 1.77,-8.213c0,-2.906 -0.456,-5.415 -1.382,-7.535c-0.916,-2.11 -2.154,-3.946 -3.704,-5.495c-1.55,-1.55 -3.315,-2.874 -5.306,-3.973c-1.981,-1.097 -4.042,-2.066 -6.174,-2.906l-8.234,-3.294c-1.519,-0.582 -2.956,-1.232 -4.312,-1.964c-1.357,-0.722 -2.529,-1.556 -3.509,-2.492c-0.991,-0.937 -1.781,-2.008 -2.38,-3.225c-0.597,-1.205 -0.893,-2.62 -0.893,-4.235c0,-1.712 0.345,-3.294 1.044,-4.748c0.69,-1.452 1.653,-2.728 2.879,-3.826c1.228,-1.098 2.649,-1.938 4.264,-2.519c1.614,-0.582 3.391,-0.873 5.328,-0.873c3.035,0 5.689,0.496 7.971,1.476c2.272,0.99 4.381,2.4 6.32,4.24l4.552,-5.231c-2.518,-2.195 -5.215,-3.907 -8.088,-5.135c-2.875,-1.227 -6.46,-1.84 -10.755,-1.84c-3.004,0 -5.786,0.484 -8.359,1.453Zm385.455,-0.436l0,6.443l19.328,0l0,65.976l7.557,0l0,-65.976l19.231,0l0,-6.443l-46.116,0Zm-150.829,0l0,72.419l20.637,0c2.325,0 4.462,-0.065 6.415,-0.193c1.954,-0.13 3.789,-0.437 5.501,-0.921c3.778,-0.969 7.303,-2.508 10.582,-4.623c3.277,-2.115 6.104,-4.705 8.483,-7.751c2.367,-3.058 4.235,-6.491 5.591,-10.323c1.357,-3.822 2.034,-7.999 2.034,-12.519c0,-4.813 -0.742,-9.221 -2.227,-13.225c-1.485,-4.005 -3.521,-7.525 -6.104,-10.56c-2.584,-3.036 -5.614,-5.511 -9.08,-7.434c-3.478,-1.92 -7.196,-3.256 -11.169,-3.998c-1.711,-0.323 -3.515,-0.549 -5.398,-0.679c-1.895,-0.129 -3.499,-0.193 -4.823,-0.193l-20.442,0Zm7.558,6.443l12.691,0c1.454,0 3.078,0.048 4.865,0.145c1.799,0.097 3.386,0.307 4.775,0.63c3.229,0.742 6.184,1.937 8.864,3.584c2.681,1.647 4.979,3.715 6.9,6.2c1.923,2.487 3.408,5.351 4.456,8.602c1.05,3.24 1.578,6.819 1.578,10.727c0,3.552 -0.511,6.889 -1.523,10.005c-1.023,3.117 -2.444,5.91 -4.263,8.376c-1.83,2.475 -4.011,4.607 -6.544,6.394c-2.535,1.797 -5.334,3.078 -8.402,3.853c-1.518,0.42 -3.166,0.695 -4.942,0.823c-1.775,0.13 -3.698,0.194 -5.764,0.194l-12.691,0l0,-59.533Zm-120.339,0l44.566,0l0,-6.443l-44.566,0l0,6.443Zm-204.56,0l44.565,0l0,-6.443l-44.565,0l0,6.443Zm-69.201,-6.443l0,6.443l19.328,0l0,65.976l7.557,0l0,-65.976l19.231,0l0,-6.443l-46.116,0Zm-30.593,72.419l7.557,0l0,-72.419l-7.557,0l0,72.419Zm-31.223,-72.419l-24.04,57.072l-24.449,-57.072l-8.235,0l32.552,75.809l32.31,-75.809l-8.138,0Zm335.577,38.511l44.566,0l0,-6.492l-44.566,0l0,6.492Zm-204.56,0l44.565,0l0,-6.492l-44.565,0l0,6.492Zm204.512,27.465l0.048,6.443l44.566,0l0,-6.443l-44.614,0Zm-204.561,0l0.049,6.443l44.565,0l0,-6.443l-44.614,0Z" style="fill:url(#_Linear1);fill-rule:nonzero;"/><defs><linearGradient id="_Linear1" x1="0" y1="0" x2="1" y2="0" gradientUnits="userSpaceOnUse" gradientTransform="matrix(777.81,0,0,777.81,0.158051,39.6003)"><stop offset="0" style="stop-color:#008000;stop-opacity:1"/><stop offset="0.5" style="stop-color:#48d900;stop-opacity:1"/><stop offset="1" style="stop-color:#008000;stop-opacity:1"/></linearGradient></defs></svg>
