<?xml version="1.0" encoding="UTF-8" standalone="no"?><!DOCTYPE svg PUBLIC "-//W3C//DTD SVG 1.1//EN" "http://www.w3.org/Graphics/SVG/1.1/DTD/svg11.dtd"><svg width="100%" height="100%" viewBox="0 0 400 400" version="1.1" xmlns="http://www.w3.org/2000/svg" xmlns:xlink="http://www.w3.org/1999/xlink" xml:space="preserve" xmlns:serif="http://www.serif.com/" style="fill-rule:evenodd;clip-rule:evenodd;stroke-linejoin:round;stroke-miterlimit:1.41421;"><g id="Слой1"><path d="M395,5l0,195c-30.37,110.049 -94.957,175.585 -195,195c-105.663,-22.154 -168.782,-89.137 -195,-195c14.986,-132.064 90.143,-183.445 195,-195l195,0Z" style="fill:#fff;"/><path d="M395,200c0,107.623 -87.377,195 -195,195c-107.623,0 -195,-87.377 -195,-195c0,-107.623 87.376,-195 195,-195l195,0l0,195Zm-195,-168.875c-93.205,0 -168.875,75.67 -168.875,168.875c0,93.205 75.67,168.875 168.875,168.875c93.205,0 168.875,-75.67 168.875,-168.875c0,-43.57 1.172,-81.643 0,-168.875l-168.875,0Zm-17.449,35.27l110.617,-20l-71.168,99.545l91.383,0l-169.766,207.665l62.096,-147.605l-62.096,0l38.934,-139.605Z" style="fill:#48d900;"/></g></svg>