<?xml version="1.0" encoding="UTF-8" standalone="no"?>
<svg
   xmlns:serif="http://www.serif.com/"
   xmlns:dc="http://purl.org/dc/elements/1.1/"
   xmlns:cc="http://creativecommons.org/ns#"
   xmlns:rdf="http://www.w3.org/1999/02/22-rdf-syntax-ns#"
   xmlns:svg="http://www.w3.org/2000/svg"
   xmlns="http://www.w3.org/2000/svg"
   xmlns:sodipodi="http://sodipodi.sourceforge.net/DTD/sodipodi-0.dtd"
   xmlns:inkscape="http://www.inkscape.org/namespaces/inkscape"
   width="100%"
   height="100%"
   viewBox="0 0 298 118"
   version="1.1"
   xml:space="preserve"
   style="fill-rule:evenodd;clip-rule:evenodd;stroke-linejoin:round;stroke-miterlimit:1.41421;"
   id="svg2"
   inkscape:version="0.91 r13725"
   sodipodi:docname="logo-right.svg"><metadata
     id="metadata27"><rdf:RDF><cc:Work
         rdf:about=""><dc:format>image/svg+xml</dc:format><dc:type
           rdf:resource="http://purl.org/dc/dcmitype/StillImage" /></cc:Work></rdf:RDF></metadata><sodipodi:namedview
     pagecolor="#ffffff"
     bordercolor="#666666"
     borderopacity="1"
     objecttolerance="10"
     gridtolerance="10"
     guidetolerance="10"
     inkscape:pageopacity="0"
     inkscape:pageshadow="2"
     inkscape:window-width="1855"
     inkscape:window-height="1056"
     id="namedview25"
     showgrid="false"
     inkscape:zoom="1"
     inkscape:cx="149"
     inkscape:cy="59"
     inkscape:window-x="65"
     inkscape:window-y="24"
     inkscape:window-maximized="1"
     inkscape:current-layer="svg2" /><g
     id="Layer-1"
     serif:id="Layer 1"
     style="fill:#26af00;fill-opacity:1"><path
       d="m 252.698,117.094 5.596,0 16.525,-39.106 16.36,39.106 5.596,0 -21.956,-51.515 -22.121,51.515 z m -90.193,0 5.596,0 16.523,-39.106 16.361,39.106 5.596,0 -21.957,-51.515 -22.119,51.515 z m 51.435,-49.211 0,4.378 13.134,0 0,44.833 5.135,0 0,-44.833 13.068,0 0,-4.378 -31.337,0 z m -102.494,0 0,49.211 14.023,0 c 1.58,0 3.032,-0.044 4.36,-0.131 1.327,-0.088 2.574,-0.297 3.738,-0.626 2.567,-0.658 4.962,-1.704 7.191,-3.141 2.226,-1.438 4.147,-3.198 5.764,-5.267 1.609,-2.078 2.878,-4.411 3.799,-7.015 0.922,-2.597 1.383,-5.436 1.383,-8.507 0,-3.271 -0.505,-6.266 -1.514,-8.987 -1.009,-2.722 -2.392,-5.114 -4.148,-7.176 -1.756,-2.063 -3.815,-3.745 -6.17,-5.052 -2.363,-1.305 -4.89,-2.212 -7.59,-2.717 -1.162,-0.219 -2.388,-0.373 -3.668,-0.461 -1.287,-0.088 -2.377,-0.131 -3.277,-0.131 l -13.891,0 z m 5.136,4.378 8.624,0 c 0.988,0 2.091,0.033 3.306,0.099 1.222,0.066 2.301,0.208 3.244,0.428 2.195,0.504 4.203,1.316 6.024,2.435 1.822,1.119 3.383,2.525 4.689,4.213 1.306,1.69 2.316,3.636 3.028,5.846 0.713,2.201 1.072,4.633 1.072,7.289 0,2.414 -0.347,4.681 -1.035,6.799 -0.695,2.118 -1.661,4.016 -2.897,5.692 -1.243,1.681 -2.725,3.13 -4.447,4.345 -1.722,1.221 -3.624,2.091 -5.709,2.618 -1.032,0.285 -2.152,0.472 -3.358,0.559 -1.207,0.088 -2.513,0.132 -3.917,0.132 l -8.624,0 0,-40.455 z"
       style="fill:#26af00;fill-opacity:1;fill-rule:nonzero"
       id="path5"
       inkscape:connector-curvature="0" /><path
       d="m 230.421,0.987 c -1.741,0.659 -3.255,1.547 -4.542,2.666 -1.28,1.119 -2.297,2.447 -3.043,3.984 -0.747,1.536 -1.12,3.193 -1.12,4.97 0,1.8 0.286,3.365 0.857,4.693 0.57,1.327 1.327,2.494 2.271,3.503 0.943,1.01 2.041,1.866 3.292,2.568 1.251,0.702 2.556,1.317 3.916,1.844 l 5.795,2.238 c 1.119,0.439 2.194,0.922 3.225,1.448 1.032,0.527 1.92,1.149 2.666,1.858 0.746,0.717 1.342,1.533 1.797,2.455 0.446,0.921 0.673,2.008 0.673,3.258 0,1.361 -0.25,2.633 -0.739,3.818 -0.498,1.186 -1.193,2.217 -2.092,3.095 -0.9,0.877 -1.99,1.577 -3.278,2.092 -1.279,0.515 -2.714,0.772 -4.294,0.772 -2.633,0 -5.043,-0.571 -7.227,-1.712 -2.184,-1.141 -3.998,-2.655 -5.445,-4.543 l -3.688,3.095 c 2.063,2.567 4.489,4.455 7.276,5.661 2.786,1.207 5.771,1.81 8.953,1.81 2.173,0 4.213,-0.357 6.122,-1.067 1.91,-0.713 3.57,-1.711 4.989,-3 1.412,-1.279 2.52,-2.783 3.321,-4.506 0.801,-1.722 1.203,-3.584 1.203,-5.581 0,-1.975 -0.311,-3.68 -0.94,-5.12 -0.621,-1.434 -1.463,-2.682 -2.516,-3.734 -1.053,-1.053 -2.253,-1.953 -3.606,-2.7 -1.346,-0.745 -2.747,-1.404 -4.195,-1.975 l -5.597,-2.238 c -1.031,-0.396 -2.007,-0.837 -2.929,-1.335 -0.921,-0.49 -1.72,-1.057 -2.385,-1.693 -0.673,-0.637 -1.21,-1.365 -1.616,-2.192 -0.406,-0.818 -0.607,-1.78 -0.607,-2.877 0,-1.164 0.233,-2.239 0.71,-3.227 0.467,-0.987 1.122,-1.854 1.956,-2.6 0.834,-0.746 1.799,-1.317 2.896,-1.712 1.098,-0.395 2.305,-0.593 3.622,-0.593 2.063,0 3.865,0.337 5.416,1.003 1.544,0.673 2.978,1.631 4.294,2.881 L 248.906,4.74 C 247.194,3.248 245.363,2.085 243.409,1.25 241.456,0.417 239.021,0 236.102,0 c -2.041,0 -3.932,0.329 -5.681,0.987 z m -46.636,0 c -1.741,0.659 -3.255,1.547 -4.542,2.666 -1.281,1.119 -2.297,2.447 -3.043,3.984 -0.746,1.536 -1.12,3.193 -1.12,4.97 0,1.8 0.285,3.365 0.856,4.693 0.571,1.327 1.328,2.494 2.271,3.503 0.944,1.01 2.041,1.866 3.292,2.568 1.251,0.702 2.557,1.317 3.917,1.844 l 5.793,2.238 c 1.119,0.439 2.195,0.922 3.227,1.448 1.031,0.527 1.919,1.149 2.666,1.858 0.746,0.717 1.342,1.533 1.796,2.455 0.445,0.921 0.672,2.008 0.672,3.258 0,1.361 -0.248,2.633 -0.738,3.818 -0.498,1.186 -1.192,2.217 -2.092,3.095 -0.9,0.877 -1.99,1.577 -3.277,2.092 -1.281,0.515 -2.714,0.772 -4.294,0.772 -2.634,0 -5.044,-0.571 -7.227,-1.712 -2.184,-1.141 -3.998,-2.655 -5.447,-4.543 l -3.686,3.095 c 2.063,2.567 4.487,4.455 7.275,5.661 2.787,1.207 5.771,1.81 8.953,1.81 2.172,0 4.214,-0.357 6.123,-1.067 1.909,-0.713 3.57,-1.711 4.989,-3 1.411,-1.279 2.52,-2.783 3.32,-4.506 0.802,-1.722 1.203,-3.584 1.203,-5.581 0,-1.975 -0.31,-3.68 -0.939,-5.12 -0.622,-1.434 -1.464,-2.682 -2.517,-3.734 -1.053,-1.053 -2.253,-1.953 -3.605,-2.7 -1.347,-0.745 -2.747,-1.404 -4.196,-1.975 l -5.595,-2.238 c -1.032,-0.396 -2.009,-0.837 -2.93,-1.335 -0.923,-0.49 -1.719,-1.057 -2.385,-1.693 -0.673,-0.637 -1.21,-1.365 -1.617,-2.192 -0.406,-0.818 -0.607,-1.78 -0.607,-2.877 0,-1.164 0.234,-2.239 0.709,-3.227 0.469,-0.987 1.124,-1.854 1.957,-2.6 0.834,-0.746 1.8,-1.317 2.897,-1.712 1.097,-0.395 2.305,-0.593 3.621,-0.593 2.062,0 3.866,0.337 5.417,1.003 1.543,0.673 2.977,1.631 4.294,2.881 L 202.269,4.74 C 200.558,3.248 198.726,2.085 196.773,1.25 194.82,0.417 192.384,0 189.465,0 c -2.041,0 -3.932,0.329 -5.68,0.987 z m 82.798,4.082 30.284,0 0,-4.378 -30.284,0 0,4.378 z m -139.006,0 30.283,0 0,-4.378 -30.283,0 0,4.378 z m -47.025,-4.378 0,4.378 13.134,0 0,44.833 5.136,0 0,-44.833 13.068,0 0,-4.378 -31.338,0 z m -20.789,49.211 5.135,0 0,-49.211 -5.135,0 0,49.211 z M 38.546,0.691 22.21,39.474 5.596,0.691 0,0.691 22.12,52.206 44.076,0.691 l -5.53,0 z m 228.037,26.17 30.284,0 0,-4.412 -30.284,0 0,4.412 z m -139.006,0 30.283,0 0,-4.412 -30.283,0 0,4.412 z m 138.973,18.663 0.033,4.378 30.284,0 0,-4.378 -30.317,0 z m -139.006,0 0.033,4.378 30.283,0 0,-4.378 -30.316,0 z"
       style="fill:#26af00;fill-opacity:1;fill-rule:nonzero"
       id="path7"
       inkscape:connector-curvature="0" /></g><defs
     id="defs9"><linearGradient
       id="_Linear1"
       x1="0"
       y1="0"
       x2="1"
       y2="0"
       gradientUnits="userSpaceOnUse"
       gradientTransform="matrix(528.55,0,0,528.55,-231.776,92.4883)"><stop
         offset="0"
         style="stop-color:#008000;stop-opacity:1"
         id="stop12" /><stop
         offset="0.5"
         style="stop-color:#48d900;stop-opacity:1"
         id="stop14" /><stop
         offset="1"
         style="stop-color:#008000;stop-opacity:1"
         id="stop16" /></linearGradient><linearGradient
       id="_Linear2"
       x1="0"
       y1="0"
       x2="1"
       y2="0"
       gradientUnits="userSpaceOnUse"
       gradientTransform="matrix(528.55,0,0,528.55,3.43166e-5,25.2966)"><stop
         offset="0"
         style="stop-color:#008000;stop-opacity:1"
         id="stop19" /><stop
         offset="0.5"
         style="stop-color:#48d900;stop-opacity:1"
         id="stop21" /><stop
         offset="1"
         style="stop-color:#008000;stop-opacity:1"
         id="stop23" /></linearGradient></defs></svg>