<?xml version="1.0" encoding="UTF-8" standalone="no"?>
<svg
   xmlns:serif="http://www.serif.com/"
   xmlns:dc="http://purl.org/dc/elements/1.1/"
   xmlns:cc="http://creativecommons.org/ns#"
   xmlns:rdf="http://www.w3.org/1999/02/22-rdf-syntax-ns#"
   xmlns:svg="http://www.w3.org/2000/svg"
   xmlns="http://www.w3.org/2000/svg"
   xmlns:sodipodi="http://sodipodi.sourceforge.net/DTD/sodipodi-0.dtd"
   xmlns:inkscape="http://www.inkscape.org/namespaces/inkscape"
   width="100%"
   height="100%"
   viewBox="0 0 298 118"
   version="1.1"
   xml:space="preserve"
   style="fill-rule:evenodd;clip-rule:evenodd;stroke-linejoin:round;stroke-miterlimit:1.41421;"
   id="svg2"
   inkscape:version="0.91 r13725"
   sodipodi:docname="logo-center.svg"
   inkscape:export-filename="/home/cktan/p/vitessehugo/assets/logo-center.png"
   inkscape:export-xdpi="303.17001"
   inkscape:export-ydpi="303.17001"><metadata
     id="metadata27"><rdf:RDF><cc:Work
         rdf:about=""><dc:format>image/svg+xml</dc:format><dc:type
           rdf:resource="http://purl.org/dc/dcmitype/StillImage" /></cc:Work></rdf:RDF></metadata><sodipodi:namedview
     pagecolor="#ffffff"
     bordercolor="#666666"
     borderopacity="1"
     objecttolerance="10"
     gridtolerance="10"
     guidetolerance="10"
     inkscape:pageopacity="0"
     inkscape:pageshadow="2"
     inkscape:window-width="1855"
     inkscape:window-height="1056"
     id="namedview25"
     showgrid="false"
     inkscape:zoom="1"
     inkscape:cx="-337"
     inkscape:cy="59"
     inkscape:window-x="65"
     inkscape:window-y="24"
     inkscape:window-maximized="1"
     inkscape:current-layer="svg2" /><g
     id="Layer-1"
     serif:id="Layer 1"
     style="fill:#26af00;fill-opacity:1"><path
       d="m 197.267,117.094 5.596,0 16.524,-39.106 16.361,39.106 5.596,0 -21.957,-51.515 -22.12,51.515 z m -90.193,0 5.596,0 16.523,-39.106 16.361,39.106 5.596,0 -21.957,-51.515 -22.119,51.515 z m 51.434,-49.211 0,4.378 13.134,0 0,44.833 5.136,0 0,-44.833 13.068,0 0,-4.378 -31.338,0 z m -102.493,0 0,49.211 14.023,0 c 1.58,0 3.032,-0.044 4.359,-0.131 1.328,-0.088 2.575,-0.297 3.738,-0.626 2.568,-0.658 4.963,-1.704 7.191,-3.141 2.227,-1.438 4.148,-3.198 5.765,-5.267 1.608,-2.078 2.878,-4.411 3.799,-7.015 0.922,-2.597 1.382,-5.436 1.382,-8.507 0,-3.271 -0.504,-6.266 -1.513,-8.987 -1.009,-2.722 -2.393,-5.114 -4.148,-7.176 -1.756,-2.063 -3.815,-3.745 -6.17,-5.052 -2.364,-1.305 -4.89,-2.212 -7.59,-2.717 -1.163,-0.219 -2.388,-0.373 -3.668,-0.461 -1.288,-0.088 -2.378,-0.131 -3.277,-0.131 l -13.891,0 z m 5.135,4.378 8.624,0 c 0.989,0 2.092,0.033 3.306,0.099 1.223,0.066 2.301,0.208 3.245,0.428 2.194,0.504 4.202,1.316 6.024,2.435 1.821,1.119 3.383,2.525 4.688,4.213 1.307,1.69 2.316,3.636 3.028,5.846 0.714,2.201 1.073,4.633 1.073,7.289 0,2.414 -0.348,4.681 -1.035,6.799 -0.695,2.118 -1.661,4.016 -2.897,5.692 -1.244,1.681 -2.726,3.13 -4.447,4.345 -1.723,1.221 -3.625,2.091 -5.709,2.618 -1.032,0.285 -2.152,0.472 -3.359,0.559 -1.206,0.088 -2.513,0.132 -3.917,0.132 l -8.624,0 0,-40.455 z"
       style="fill:#26af00;fill-opacity:1;fill-rule:nonzero"
       id="path5"
       inkscape:connector-curvature="0" /><path
       d="m 230.667,0.987 c -1.741,0.659 -3.255,1.547 -4.542,2.666 -1.28,1.119 -2.297,2.447 -3.044,3.984 -0.746,1.536 -1.119,3.193 -1.119,4.97 0,1.8 0.285,3.365 0.856,4.693 0.57,1.327 1.327,2.494 2.271,3.503 0.944,1.01 2.042,1.866 3.293,2.568 1.251,0.702 2.556,1.317 3.916,1.844 l 5.794,2.238 c 1.119,0.439 2.194,0.922 3.226,1.448 1.032,0.527 1.92,1.149 2.666,1.858 0.746,0.717 1.342,1.533 1.797,2.455 0.445,0.921 0.672,2.008 0.672,3.258 0,1.361 -0.249,2.633 -0.738,3.818 -0.499,1.186 -1.193,2.217 -2.093,3.095 -0.899,0.877 -1.989,1.577 -3.277,2.092 -1.28,0.515 -2.714,0.772 -4.294,0.772 -2.633,0 -5.044,-0.571 -7.227,-1.712 -2.184,-1.141 -3.998,-2.655 -5.446,-4.543 l -3.687,3.095 c 2.063,2.567 4.488,4.455 7.275,5.661 2.786,1.207 5.771,1.81 8.954,1.81 2.172,0 4.213,-0.357 6.122,-1.067 1.909,-0.713 3.569,-1.711 4.989,-3 1.411,-1.279 2.52,-2.783 3.321,-4.506 0.8,-1.722 1.203,-3.584 1.203,-5.581 0,-1.975 -0.311,-3.68 -0.94,-5.12 -0.621,-1.434 -1.463,-2.682 -2.516,-3.734 -1.053,-1.053 -2.253,-1.953 -3.606,-2.7 -1.346,-0.745 -2.748,-1.404 -4.196,-1.975 l -5.596,-2.238 c -1.031,-0.396 -2.007,-0.837 -2.929,-1.335 -0.922,-0.49 -1.72,-1.057 -2.385,-1.693 -0.673,-0.637 -1.211,-1.365 -1.616,-2.192 -0.407,-0.818 -0.608,-1.78 -0.608,-2.877 0,-1.164 0.234,-2.239 0.71,-3.227 0.468,-0.987 1.123,-1.854 1.957,-2.6 0.834,-0.746 1.799,-1.317 2.896,-1.712 1.098,-0.395 2.305,-0.593 3.621,-0.593 2.063,0 3.866,0.337 5.417,1.003 1.544,0.673 2.977,1.631 4.294,2.881 L 249.152,4.74 C 247.44,3.248 245.609,2.085 243.655,1.25 241.702,0.417 239.266,0 236.347,0 c -2.04,0 -3.932,0.329 -5.68,0.987 z m -46.637,0 c -1.741,0.659 -3.254,1.547 -4.542,2.666 -1.281,1.119 -2.296,2.447 -3.043,3.984 -0.746,1.536 -1.119,3.193 -1.119,4.97 0,1.8 0.285,3.365 0.856,4.693 0.571,1.327 1.328,2.494 2.271,3.503 0.944,1.01 2.041,1.866 3.291,2.568 1.252,0.702 2.557,1.317 3.918,1.844 l 5.793,2.238 c 1.119,0.439 2.195,0.922 3.226,1.448 1.031,0.527 1.92,1.149 2.667,1.858 0.746,0.717 1.341,1.533 1.795,2.455 0.446,0.921 0.673,2.008 0.673,3.258 0,1.361 -0.248,2.633 -0.739,3.818 -0.497,1.186 -1.192,2.217 -2.091,3.095 -0.901,0.877 -1.991,1.577 -3.278,2.092 -1.28,0.515 -2.713,0.772 -4.294,0.772 -2.633,0 -5.043,-0.571 -7.227,-1.712 -2.183,-1.141 -3.997,-2.655 -5.446,-4.543 l -3.687,3.095 c 2.064,2.567 4.488,4.455 7.276,5.661 2.786,1.207 5.771,1.81 8.953,1.81 2.172,0 4.213,-0.357 6.123,-1.067 1.909,-0.713 3.569,-1.711 4.989,-3 1.411,-1.279 2.52,-2.783 3.32,-4.506 0.801,-1.722 1.203,-3.584 1.203,-5.581 0,-1.975 -0.31,-3.68 -0.939,-5.12 -0.623,-1.434 -1.464,-2.682 -2.517,-3.734 -1.053,-1.053 -2.253,-1.953 -3.606,-2.7 -1.346,-0.745 -2.746,-1.404 -4.195,-1.975 l -5.596,-2.238 c -1.032,-0.396 -2.008,-0.837 -2.93,-1.335 -0.922,-0.49 -1.718,-1.057 -2.384,-1.693 -0.674,-0.637 -1.21,-1.365 -1.618,-2.192 -0.405,-0.818 -0.606,-1.78 -0.606,-2.877 0,-1.164 0.234,-2.239 0.709,-3.227 0.469,-0.987 1.123,-1.854 1.956,-2.6 0.835,-0.746 1.801,-1.317 2.898,-1.712 1.097,-0.395 2.304,-0.593 3.621,-0.593 2.062,0 3.865,0.337 5.416,1.003 1.544,0.673 2.977,1.631 4.295,2.881 L 202.515,4.74 C 200.804,3.248 198.971,2.085 197.019,1.25 195.065,0.417 192.629,0 189.711,0 c -2.042,0 -3.932,0.329 -5.681,0.987 z m 82.798,4.082 30.285,0 0,-4.378 -30.285,0 0,4.378 z m -139.005,0 30.283,0 0,-4.378 -30.283,0 0,4.378 z m -47.025,-4.378 0,4.378 13.134,0 0,44.833 5.135,0 0,-44.833 13.068,0 0,-4.378 -31.337,0 z m -20.789,49.211 5.135,0 0,-49.211 -5.135,0 0,49.211 z M 38.792,0.691 22.456,39.474 5.842,0.691 l -5.596,0 22.12,51.515 21.956,-51.515 -5.53,0 z m 228.036,26.17 30.285,0 0,-4.412 -30.285,0 0,4.412 z m -139.005,0 30.283,0 0,-4.412 -30.283,0 0,4.412 z m 138.973,18.663 0.032,4.378 30.285,0 0,-4.378 -30.317,0 z m -139.007,0 0.034,4.378 30.283,0 0,-4.378 -30.317,0 z"
       style="fill:#26af00;fill-opacity:1;fill-rule:nonzero"
       id="path7"
       inkscape:connector-curvature="0" /></g><defs
     id="defs9"><linearGradient
       id="_Linear1"
       x1="0"
       y1="0"
       x2="1"
       y2="0"
       gradientUnits="userSpaceOnUse"
       gradientTransform="matrix(528.55,0,0,528.55,-287.207,92.4883)"><stop
         offset="0"
         style="stop-color:#008000;stop-opacity:1"
         id="stop12" /><stop
         offset="0.5"
         style="stop-color:#48d900;stop-opacity:1"
         id="stop14" /><stop
         offset="1"
         style="stop-color:#008000;stop-opacity:1"
         id="stop16" /></linearGradient><linearGradient
       id="_Linear2"
       x1="0"
       y1="0"
       x2="1"
       y2="0"
       gradientUnits="userSpaceOnUse"
       gradientTransform="matrix(528.55,0,0,528.55,0.24571,25.2966)"><stop
         offset="0"
         style="stop-color:#008000;stop-opacity:1"
         id="stop19" /><stop
         offset="0.5"
         style="stop-color:#48d900;stop-opacity:1"
         id="stop21" /><stop
         offset="1"
         style="stop-color:#008000;stop-opacity:1"
         id="stop23" /></linearGradient></defs></svg>