<?xml version="1.0" encoding="UTF-8" standalone="no"?><!DOCTYPE svg PUBLIC "-//W3C//DTD SVG 1.1//EN" "http://www.w3.org/Graphics/SVG/1.1/DTD/svg11.dtd"><svg width="100%" height="100%" viewBox="0 0 98 73" version="1.1" xmlns="http://www.w3.org/2000/svg" xmlns:xlink="http://www.w3.org/1999/xlink" xml:space="preserve" xmlns:serif="http://www.serif.com/" style="fill-rule:evenodd;clip-rule:evenodd;stroke-linejoin:round;stroke-miterlimit:1.41421;"><path d="M52.906,6.834l44.565,0l0,-6.443l-44.565,0l0,6.443Zm-52.858,0l44.566,0l0,-6.443l-44.566,0l0,6.443Zm52.858,32.068l44.565,0l0,-6.492l-44.565,0l0,6.492Zm-52.858,0l44.566,0l0,-6.492l-44.566,0l0,6.492Zm52.809,27.465l0.049,6.443l44.565,0l0,-6.443l-44.614,0Zm-52.857,0l0.048,6.443l44.566,0l0,-6.443l-44.614,0Z" style="fill:url(#_Linear1);fill-rule:nonzero;"/><defs><linearGradient id="_Linear1" x1="0" y1="0" x2="1" y2="0" gradientUnits="userSpaceOnUse" gradientTransform="matrix(97.4716,0,0,97.4716,0,36.6003)"><stop offset="0" style="stop-color:#48d900;stop-opacity:1"/><stop offset="0.5" style="stop-color:#48d900;stop-opacity:1"/><stop offset="1" style="stop-color:#48d900;stop-opacity:1"/></linearGradient></defs></svg>
